<?xml version="1.0" standalone="no"?>
<!DOCTYPE svg PUBLIC "-//W3C//DTD SVG 20010904//EN"
 "http://www.w3.org/TR/2001/REC-SVG-20010904/DTD/svg10.dtd">
<svg version="1.0" xmlns="http://www.w3.org/2000/svg"
 width="2560.000000pt" height="1440.000000pt" viewBox="0 0 2560.000000 1440.000000"
 preserveAspectRatio="xMidYMid meet">

<g transform="translate(0.000000,1440.000000) scale(0.100000,-0.100000)"
fill="#000000" stroke="none">
<path d="M15570 10830 c8 -5 20 -10 25 -10 6 0 3 5 -5 10 -8 5 -19 10 -25 10
-5 0 -3 -5 5 -10z"/>
<path d="M15680 10785 c14 -8 30 -14 35 -14 6 0 -1 6 -15 14 -14 8 -29 14 -35
14 -5 0 1 -6 15 -14z"/>
<path d="M15795 10735 c39 -19 75 -36 80 -39 6 -2 -6 -19 -25 -36 -19 -18 -71
-67 -116 -110 l-80 -78 -58 25 c-32 13 -60 22 -62 20 -2 -2 31 -18 74 -37 143
-61 486 -236 637 -325 1094 -641 1972 -1613 2475 -2740 35 -77 72 -150 83
-162 19 -22 28 -23 153 -23 140 0 155 4 169 50 8 25 -68 206 -190 455 -453
921 -1128 1724 -1960 2330 -346 252 -764 495 -1137 660 -118 53 -144 58 -43
10z"/>
<path d="M15390 10570 c8 -5 20 -10 25 -10 6 0 3 5 -5 10 -8 5 -19 10 -25 10
-5 0 -3 -5 5 -10z"/>
<path d="M15469 10539 c24 -11 46 -18 48 -15 4 4 -73 36 -85 35 -4 0 13 -9 37
-20z"/>
<path d="M6260 8224 c-296 -26 -459 -53 -644 -108 -61 -19 -123 -36 -139 -40
-39 -9 -97 -64 -154 -149 -68 -98 -83 -129 -83 -175 0 -50 29 -88 89 -115 38
-17 66 -21 166 -21 130 -1 198 13 215 44 22 41 -12 63 -155 99 -38 9 -70 22
-72 27 -9 28 168 74 377 100 164 20 597 14 780 -10 674 -91 1314 -308 1908
-650 686 -394 1132 -859 1249 -1303 33 -125 37 -309 9 -418 -104 -407 -508
-675 -1188 -787 -175 -29 -554 -31 -747 -4 -129 18 -222 34 -228 39 -6 7 -24
820 -21 971 l3 158 130 -1 c310 -4 682 -54 866 -117 120 -40 189 -90 189 -135
0 -33 -53 -81 -139 -123 -47 -24 -94 -53 -104 -64 -18 -19 -18 -21 3 -40 30
-28 172 -73 233 -73 137 -2 290 115 343 261 8 25 16 79 17 120 1 65 -3 84 -30
142 -75 160 -291 299 -572 368 -219 54 -516 91 -737 91 l-181 0 -8 132 c-13
258 -46 467 -83 542 -24 47 -102 154 -125 170 -53 37 -94 4 -126 -101 -43
-139 -74 -340 -93 -613 l-11 -169 -110 -22 c-464 -92 -913 -291 -1030 -456
-126 -177 -82 -303 208 -603 232 -240 474 -414 834 -602 l65 -34 17 -102 c39
-240 106 -333 238 -333 60 0 149 31 179 63 23 25 41 91 42 153 0 22 2 43 5 46
3 3 45 -3 93 -14 734 -164 1503 -50 2032 300 110 73 283 244 349 346 132 204
201 436 201 678 0 180 -43 343 -145 553 -114 235 -255 426 -480 650 -294 295
-684 567 -1135 794 -530 267 -1198 463 -1779 521 -113 11 -449 20 -521 14z
m927 -2666 c-5 -280 -24 -666 -33 -677 -7 -8 -241 92 -354 151 -215 113 -385
234 -548 392 -106 103 -127 139 -110 186 23 61 83 93 276 145 184 51 563 110
726 114 l49 1 -6 -312z"/>
<path d="M10947 7955 c-405 -66 -710 -285 -857 -615 -21 -47 -25 -70 -24 -155
0 -119 23 -188 84 -257 l39 -45 -6 -70 c-5 -62 -3 -77 22 -131 31 -69 92 -132
128 -132 37 0 84 36 122 93 l36 55 72 -23 c233 -74 521 -10 796 178 106 72
286 254 344 347 153 248 138 465 -39 556 -34 18 -93 37 -132 44 -54 9 -73 16
-77 30 -12 37 -83 88 -152 110 -89 28 -240 34 -356 15z m-167 -352 c-1 -5 -26
-26 -57 -48 -84 -60 -229 -210 -313 -323 -47 -64 -77 -96 -82 -89 -4 7 -8 34
-8 61 0 71 49 165 130 247 73 74 138 112 244 139 83 22 86 22 86 13z m723 -55
c31 -16 50 -75 42 -134 -13 -103 -141 -267 -268 -343 -72 -43 -201 -87 -297
-102 -82 -13 -326 -7 -341 8 -12 12 109 160 218 265 256 246 521 371 646 306z"/>
<path d="M18932 6854 c-28 -20 -28 -45 2 -209 41 -219 101 -743 89 -767 -2 -5
-211 -8 -464 -8 -446 0 -460 -1 -479 -20 -18 -18 -20 -33 -20 -145 0 -120 1
-127 25 -150 l24 -25 467 0 467 0 -7 -277 c-3 -153 -10 -325 -16 -383 -25
-288 -25 -265 1 -288 21 -20 34 -22 146 -22 178 0 168 -16 193 295 6 66 13
245 17 397 l6 277 473 3 c439 3 475 4 491 21 15 15 19 39 21 140 3 113 2 125
-18 150 l-21 27 -482 2 -482 3 -2 40 c-13 206 -49 518 -89 760 -33 198 -30
195 -197 195 -95 0 -128 -4 -145 -16z"/>
<path d="M13804 6612 c-21 -13 -34 -51 -34 -94 0 -24 24 -131 54 -239 103
-375 183 -751 193 -909 5 -74 3 -88 -12 -100 -16 -13 -21 -11 -54 27 -20 24
-83 120 -141 215 -217 357 -372 573 -484 675 -79 73 -125 77 -195 16 -123
-105 -234 -571 -248 -1043 -10 -324 21 -458 116 -514 45 -26 117 -26 162 0 42
24 75 87 89 174 6 36 17 216 25 400 13 299 22 401 38 416 10 10 58 -66 142
-226 214 -406 359 -612 470 -665 56 -27 157 -26 210 2 50 26 126 106 155 163
30 59 66 206 81 331 18 161 7 444 -25 595 -69 329 -218 592 -420 741 -55 41
-96 53 -122 35z"/>
<path d="M16514 6391 c-127 -94 -328 -351 -425 -543 -102 -202 -140 -340 -147
-528 -4 -116 -1 -148 17 -220 11 -47 34 -112 50 -144 l29 -60 -45 -100 c-251
-558 -372 -1080 -307 -1329 51 -196 243 -403 341 -366 34 12 49 54 67 179 59
410 201 924 354 1281 l20 46 59 -9 c286 -47 605 127 862 471 160 214 232 450
218 711 -11 219 -80 370 -196 434 -184 100 -429 -25 -747 -382 -93 -104 -259
-320 -355 -462 l-64 -95 -3 78 c-5 148 36 262 201 553 131 231 155 286 169
382 19 131 -14 165 -98 103z m851 -511 c42 -46 25 -231 -34 -356 -92 -197
-240 -340 -434 -420 -83 -34 -224 -71 -233 -61 -8 8 107 205 198 338 87 128
181 248 303 388 112 129 160 155 200 111z"/>
<path d="M11874 6350 c-320 -49 -576 -144 -692 -258 -66 -64 -93 -128 -111
-257 -35 -245 54 -302 509 -325 696 -37 980 -122 916 -275 -66 -156 -554 -288
-915 -246 -222 26 -308 101 -230 199 56 72 144 68 314 -14 147 -71 317 -92
466 -58 81 18 159 66 173 106 8 24 6 32 -20 59 -58 62 -162 99 -389 140 -88
16 -160 22 -270 22 -214 0 -306 -27 -398 -120 -61 -60 -81 -107 -82 -188 0
-60 5 -81 33 -137 61 -125 240 -259 429 -324 139 -47 220 -57 408 -51 176 6
308 33 470 96 224 87 289 179 302 426 21 412 -176 565 -768 595 -185 9 -490
42 -562 61 -72 19 -53 67 37 95 113 34 529 85 976 119 113 8 223 20 245 26 73
20 135 101 135 178 0 39 -1 40 -62 70 -35 17 -101 37 -148 45 -220 39 -564 46
-766 16z"/>
<path d="M15340 6353 c-296 -29 -621 -77 -728 -108 -58 -17 -92 -45 -92 -74 0
-10 19 -47 42 -81 58 -88 146 -140 236 -140 17 0 32 -2 32 -4 0 -2 -29 -64
-65 -138 l-64 -134 -60 -12 c-33 -7 -70 -21 -83 -31 -20 -17 -23 -27 -22 -88
1 -42 9 -88 21 -120 l20 -51 -33 -96 c-48 -137 -67 -251 -62 -371 4 -121 28
-178 112 -271 109 -121 233 -157 415 -120 220 45 511 192 668 339 70 65 83
101 63 163 -16 49 -73 110 -115 124 -47 16 -194 -3 -558 -72 -106 -20 -171
-28 -177 -22 -6 6 8 67 37 166 l47 157 80 5 c45 3 178 10 296 16 253 13 279
20 293 85 5 22 7 73 5 112 -5 113 8 108 -293 108 -166 0 -254 3 -252 10 2 6
19 54 36 108 18 53 36 97 39 97 26 0 426 32 507 40 148 16 268 39 288 57 28
26 22 82 -19 148 -54 91 -101 143 -157 175 l-52 30 -185 -2 c-102 -1 -201 -3
-220 -5z"/>
<path d="M10612 6305 c-16 -14 -37 -42 -45 -64 -43 -107 -69 -472 -71 -1016
-1 -498 13 -578 110 -626 69 -33 166 -38 227 -11 38 17 47 27 56 59 23 81 32
292 21 532 -25 585 -42 870 -55 919 -16 63 -55 131 -108 189 -48 52 -88 57
-135 18z"/>
</g>
</svg>
