<?xml version="1.0" standalone="no"?>
<!DOCTYPE svg PUBLIC "-//W3C//DTD SVG 20010904//EN"
 "http://www.w3.org/TR/2001/REC-SVG-20010904/DTD/svg10.dtd">
<svg version="1.0" xmlns="http://www.w3.org/2000/svg"
 width="2560.000000pt" height="1440.000000pt" viewBox="0 0 2560.000000 1440.000000"
 preserveAspectRatio="xMidYMid meet">

<g transform="translate(0.000000,1440.000000) scale(0.100000,-0.100000)"
fill="#000000" stroke="none">
<path d="M12460 10851 c-60 -88 -217 -244 -310 -307 -254 -174 -563 -262 -821
-234 -136 15 -253 50 -379 113 -58 28 -108 54 -113 55 -4 2 -6 -668 -5 -1490
l3 -1493 22 -59 c62 -160 171 -271 357 -361 115 -56 229 -88 436 -125 278 -49
432 -103 583 -204 76 -50 189 -157 247 -234 l25 -32 58 74 c165 212 404 330
797 396 392 66 642 199 749 400 64 120 61 25 61 1648 0 815 -3 1482 -6 1482
-3 0 -19 -9 -35 -21 -92 -65 -291 -132 -448 -149 -345 -38 -758 127 -1024 410
-41 44 -93 106 -114 138 l-39 58 -44 -65z m380 -468 c0 -5 -18 -16 -39 -26
-21 -10 -65 -35 -98 -56 -47 -30 -64 -36 -82 -29 -17 6 -31 4 -49 -8 l-24 -16
54 -22 c30 -13 70 -33 87 -46 l33 -23 20 20 20 21 -31 18 c-29 17 -30 19 -13
37 23 27 143 117 154 117 15 0 46 -81 64 -170 12 -63 15 -111 11 -190 -11
-205 -65 -328 -202 -465 -72 -73 -107 -100 -180 -137 -127 -64 -307 -118 -396
-118 -27 0 -29 2 -23 28 26 115 136 394 176 446 14 18 15 18 43 0 27 -17 28
-17 41 1 8 10 14 22 14 26 0 10 -110 66 -153 77 -33 9 -38 8 -48 -10 -12 -21
1 -38 29 -38 18 0 15 -21 -12 -82 -35 -78 -74 -211 -96 -323 -10 -53 -20 -98
-23 -101 -7 -8 -37 99 -54 191 -41 238 25 477 175 637 117 124 261 202 433
233 83 15 169 19 169 8z m515 -334 l80 0 -39 -32 c-22 -18 -50 -41 -64 -52
l-24 -21 21 -68 c12 -38 19 -71 17 -74 -3 -2 -32 15 -65 38 l-60 42 -66 -46
c-36 -26 -65 -43 -65 -38 0 5 11 40 24 79 l24 71 -66 48 -67 49 82 3 82 3 22
67 c12 37 24 71 27 77 3 5 17 -25 31 -68 l25 -77 81 -1z m474 69 l22 -67 82
-3 82 -3 -62 -45 c-35 -25 -63 -52 -63 -61 0 -9 9 -42 20 -74 11 -32 20 -62
20 -67 0 -5 -29 12 -65 38 l-66 46 -60 -42 c-33 -23 -62 -40 -65 -38 -2 3 5
36 17 74 l21 68 -24 21 c-14 11 -42 34 -64 52 l-39 32 81 0 80 1 24 75 c13 42
27 72 31 68 3 -5 16 -38 28 -75z m-2609 0 l25 -73 79 -5 78 -5 -61 -44 c-33
-25 -61 -49 -61 -55 0 -6 9 -40 20 -75 11 -35 19 -66 17 -67 -2 -2 -29 14 -60
36 -30 22 -61 40 -67 40 -6 0 -37 -18 -67 -40 -31 -22 -58 -38 -60 -36 -2 1 6
32 17 67 11 35 20 69 20 75 0 6 -28 30 -61 55 l-61 44 78 5 79 5 25 73 c14 39
27 72 30 72 3 0 16 -33 30 -72z m580 -10 l22 -68 80 0 81 0 -66 -50 -65 -49
23 -73 c13 -40 22 -75 20 -77 -2 -1 -32 17 -66 42 l-62 44 -64 -44 c-34 -25
-63 -40 -63 -35 0 6 9 40 21 77 11 37 19 68 17 69 -2 2 -30 23 -62 47 l-60 44
79 5 78 5 25 73 c13 41 28 70 32 65 4 -4 17 -38 30 -75z m-5 -503 l27 -74 81
-3 82 -3 -67 -49 -66 -49 15 -50 c8 -28 19 -61 24 -75 5 -14 8 -26 6 -28 -1
-2 -31 17 -66 41 -35 25 -69 42 -75 38 -6 -4 -35 -24 -63 -45 -60 -43 -63 -39
-33 47 11 32 20 62 20 66 0 4 -30 29 -66 56 l-66 48 84 5 83 5 25 73 c14 39
25 72 26 72 1 0 14 -34 29 -75z m1560 -75 l79 -5 -60 -44 c-32 -24 -61 -46
-63 -48 -3 -2 5 -35 18 -74 12 -39 21 -73 19 -75 -3 -2 -30 14 -62 36 -31 22
-60 40 -65 40 -4 0 -34 -18 -65 -41 -32 -23 -59 -39 -62 -37 -2 3 5 31 16 63
11 32 20 66 20 75 0 9 -28 36 -61 61 l-61 44 79 3 79 3 18 52 c40 113 35 110
65 27 l27 -75 79 -5z m475 71 l24 -70 79 -3 79 -3 -61 -44 c-33 -25 -61 -50
-61 -57 0 -7 9 -41 20 -75 10 -35 17 -65 15 -67 -2 -2 -29 14 -61 37 -31 23
-61 41 -65 41 -5 0 -34 -18 -65 -40 -32 -22 -59 -38 -62 -36 -2 2 7 36 19 75
13 39 21 72 18 74 -2 2 -31 24 -63 48 l-60 44 80 5 79 5 25 72 c13 39 27 70
30 68 3 -2 16 -35 30 -74z m-2611 -1 l24 -70 81 -1 81 0 -39 -32 c-22 -18 -51
-42 -65 -53 l-26 -22 23 -69 c12 -38 22 -73 22 -77 0 -4 -29 13 -65 39 l-65
46 -65 -46 c-36 -26 -65 -43 -65 -39 0 4 10 39 22 77 l23 69 -26 22 c-14 11
-43 35 -65 53 l-39 32 81 0 81 1 24 70 c13 39 26 70 29 70 3 0 16 -31 29 -70z
m2759 -1277 l-3 -798 -27 -51 c-40 -76 -133 -156 -243 -210 -98 -47 -221 -81
-465 -127 -285 -55 -556 -177 -695 -315 l-39 -39 -62 53 c-82 69 -159 118
-269 170 -158 74 -253 101 -575 163 -217 42 -368 109 -465 206 -109 108 -100
23 -103 943 l-2 802 1475 0 1475 0 -2 -797z"/>
<path d="M12462 10182 c-27 -18 -29 -32 -3 -32 17 0 102 -40 148 -70 19 -13
24 -12 42 4 l20 19 -22 17 c-28 22 -103 60 -137 70 -16 5 -33 2 -48 -8z"/>
<path d="M12360 10080 c-14 -26 -16 -23 37 -38 23 -7 65 -28 93 -47 l52 -35
18 23 c18 22 18 22 -3 40 -32 25 -117 66 -154 73 -25 5 -33 2 -43 -16z"/>
<path d="M12280 9970 c-14 -26 -16 -23 35 -38 22 -6 65 -27 97 -45 l56 -34 13
23 c16 30 5 43 -67 78 -80 39 -119 44 -134 16z"/>
<path d="M11160 8867 l0 -94 50 -23 50 -24 -2 -524 -3 -524 -45 -18 -45 -18 0
-82 0 -83 205 -53 c113 -30 211 -54 218 -54 9 0 12 25 12 94 l0 94 -50 37 -50
37 0 306 c0 168 2 303 5 301 2 -3 74 -211 159 -463 85 -251 156 -459 158 -462
5 -5 199 -64 211 -64 4 0 7 332 7 738 l0 737 45 27 45 28 0 90 0 90 -205 0
-205 0 0 -94 0 -95 43 -23 42 -23 3 -354 c1 -195 -1 -351 -5 -347 -5 4 -76
215 -158 469 l-150 462 -168 3 -167 2 0 -93z"/>
<path d="M12217 8953 c-4 -3 -7 -46 -7 -94 l0 -89 50 -25 50 -25 0 -660 0
-659 -50 -22 -50 -21 0 -78 0 -78 203 -75 c111 -42 210 -78 220 -82 15 -7 17
1 17 88 l0 95 -45 53 -45 53 0 363 0 363 78 0 77 0 28 -40 c27 -38 31 -40 83
-40 l54 0 0 195 0 195 -58 0 c-56 0 -58 -1 -82 -40 l-25 -40 -77 0 -78 0 0
220 0 221 102 -3 102 -3 22 -70 22 -70 86 -3 86 -3 0 191 0 190 -378 0 c-208
0 -382 -3 -385 -7z"/>
<path d="M13070 8865 l0 -95 45 -22 45 -22 0 -591 0 -590 -55 -43 -55 -43 0
-96 c0 -79 2 -94 14 -90 8 3 169 47 358 97 189 50 358 96 376 101 l32 11 0
239 0 240 -92 -3 -93 -3 -17 -139 c-9 -76 -19 -140 -21 -143 -2 -2 -37 -13
-78 -24 -41 -11 -82 -22 -91 -25 -17 -5 -18 26 -18 548 l0 553 45 24 45 24 0
93 0 94 -220 0 -220 0 0 -95z"/>
<path d="M3732 5903 c-84 -231 -142 -397 -142 -404 0 -5 123 -9 294 -9 272 0
295 -1 300 -17 3 -10 77 -351 166 -758 89 -407 166 -757 171 -777 l10 -38 542
0 542 0 339 938 c187 515 352 972 368 1015 l28 77 -348 -2 -347 -3 -192 -525
c-105 -289 -193 -529 -195 -534 -2 -4 -55 225 -117 510 -62 286 -115 527 -117
537 -5 16 -45 17 -649 17 l-643 0 -10 -27z"/>
<path d="M6405 5618 c-3 -7 -38 -103 -78 -213 l-74 -200 696 -2 c383 -2 702
-5 709 -8 9 -3 6 -21 -13 -71 -14 -36 -25 -68 -25 -70 0 -2 156 -3 347 -2
l347 3 103 280 c56 154 103 283 103 288 0 4 -475 7 -1055 7 -835 0 -1057 -3
-1060 -12z"/>
<path d="M8686 5563 c-14 -38 -49 -134 -79 -215 l-54 -148 278 0 c194 0 279
-3 279 -11 0 -10 -457 -1277 -467 -1292 -2 -4 199 -6 447 -5 l452 3 234 644
c128 355 237 648 242 653 4 4 120 9 257 10 l250 3 77 210 c43 116 78 211 78
213 0 1 -443 2 -984 2 l-984 0 -26 -67z"/>
<path d="M10780 5424 c-41 -113 -76 -210 -78 -214 -2 -5 34 -10 80 -12 l83 -3
3 -652 2 -653 343 0 343 0 235 319 234 318 3 -318 2 -319 409 0 408 0 630 858
c346 471 633 863 637 870 6 9 -66 12 -346 12 l-353 0 -240 -328 -240 -329 -3
329 -2 328 -343 0 -343 0 -234 -318 -235 -319 -3 319 -2 318 -458 0 -457 0
-75 -206z"/>
<path d="M14591 5619 c-58 -11 -137 -37 -181 -59 -64 -33 -155 -108 -202 -167
-38 -49 -108 -170 -108 -187 0 -3 297 -7 660 -8 734 -3 694 1 694 -70 0 -30
-218 -647 -249 -708 -7 -14 -27 -38 -45 -55 l-31 -30 -189 -3 c-179 -3 -190
-2 -209 17 -12 12 -21 32 -21 44 0 18 160 472 225 640 7 16 -18 17 -442 17
l-450 0 -136 -377 c-75 -208 -142 -402 -148 -432 -37 -177 35 -299 200 -337
87 -21 1538 -20 1636 1 191 41 357 175 444 358 53 113 360 974 371 1040 17
111 -9 200 -77 256 -83 69 -43 66 -913 67 -432 1 -805 -2 -829 -7z"/>
<path d="M19256 5563 c-14 -38 -50 -134 -80 -215 l-54 -148 85 0 c83 0 85 0
79 -22 -3 -13 -108 -306 -234 -653 l-229 -630 445 -3 c245 -1 447 0 450 3 3 2
143 386 313 852 169 466 310 856 314 866 7 16 -22 17 -528 17 l-535 0 -26 -67z"/>
<path d="M20654 5352 c-443 -457 -390 -390 -462 -588 l-62 -170 85 -348 c47
-191 85 -350 85 -352 0 -2 199 -4 443 -4 l442 0 76 213 76 212 -72 3 -72 3
-52 234 c-29 129 -51 239 -50 244 2 6 87 98 188 206 l184 195 73 0 c41 0 74 1
74 3 0 1 34 94 75 206 41 112 75 208 75 213 0 4 -188 8 -419 8 l-419 0 -268
-278z"/>
<path d="M16690 5617 c0 -2 -34 -96 -75 -208 -41 -112 -75 -207 -75 -211 0 -4
312 -8 694 -8 686 0 694 0 720 -21 34 -27 33 -54 -4 -154 -54 -146 -83 -169
-218 -173 l-97 -4 -69 -191 c-38 -106 -71 -198 -74 -204 -3 -10 18 -13 83 -13
143 0 153 -17 100 -174 -56 -168 -43 -270 43 -329 61 -43 111 -48 486 -45
l350 3 78 215 c43 118 78 216 78 217 0 1 -19 3 -42 5 -39 3 -43 6 -46 31 -2
16 4 49 12 74 33 98 10 178 -63 215 l-33 16 58 28 c74 35 149 110 192 191 18
34 58 131 89 215 56 150 57 155 58 259 0 99 -2 108 -28 147 -15 23 -45 53 -66
68 -83 55 -62 54 -1148 54 -552 0 -1003 -2 -1003 -3z"/>
<path d="M3736 5342 c-4 -7 -371 -1014 -512 -1404 l-13 -38 348 0 348 0 148
407 147 407 -67 311 c-37 170 -69 313 -72 318 -6 10 -321 9 -327 -1z"/>
<path d="M6362 5023 c-78 -216 -393 -1085 -401 -1105 l-11 -28 973 0 972 0 99
278 c55 152 101 283 104 290 3 10 -67 12 -343 10 l-347 -3 -27 -70 -27 -70
-172 -3 c-94 -1 -172 1 -172 5 0 5 18 59 41 121 l41 112 318 0 317 0 68 188
c37 103 70 193 72 200 4 9 -62 12 -311 12 -174 0 -316 2 -316 4 0 2 7 22 15
45 l14 41 -448 0 -449 0 -10 -27z"/>
<path d="M16447 4466 c-114 -316 -207 -577 -207 -580 0 -3 201 -5 447 -4 l448
3 202 560 c112 308 206 568 209 578 5 16 -21 17 -443 17 l-449 0 -207 -574z"/>
</g>
</svg>
