<?xml version="1.0" standalone="no"?>
<!DOCTYPE svg PUBLIC "-//W3C//DTD SVG 20010904//EN"
 "http://www.w3.org/TR/2001/REC-SVG-20010904/DTD/svg10.dtd">
<svg version="1.0" xmlns="http://www.w3.org/2000/svg"
 width="2048.000000pt" height="630.000000pt" viewBox="0 0 2048.000000 630.000000"
 preserveAspectRatio="xMidYMid meet">

<g transform="translate(0.000000,630.000000) scale(0.100000,-0.100000)"
fill="#000000" stroke="none">
<path d="M16517 5623 c-4 -3 -7 -865 -7 -1915 l0 -1908 310 0 310 0 0 350 0
351 172 182 c94 100 172 183 174 185 1 1 167 -238 369 -533 l368 -535 374 0
c205 0 373 3 373 6 0 7 -17 31 -515 719 -175 242 -345 477 -377 523 l-59 82
-134 0 c-74 0 -135 3 -135 6 0 4 289 314 579 619 42 44 150 159 241 255 90 96
184 196 209 223 l45 47 -401 0 -401 0 -432 -465 c-238 -256 -436 -465 -441
-465 -5 0 -9 496 -9 1140 l0 1140 -303 0 c-167 0 -307 -3 -310 -7z"/>
<path d="M1091 4334 c-469 -79 -876 -431 -1025 -888 -65 -197 -60 -60 -63
-1833 l-4 -1613 311 0 310 0 0 840 c0 462 3 840 8 839 4 -1 54 -52 112 -114
58 -63 110 -114 117 -114 6 -1 166 60 355 135 188 74 390 153 448 175 321 122
533 266 695 474 176 227 261 460 271 750 12 300 -57 543 -225 795 -64 97 -204
243 -306 319 -88 66 -306 173 -407 201 -189 51 -416 64 -597 34z m424 -604
c113 -35 191 -84 285 -179 96 -97 156 -201 187 -326 25 -102 22 -286 -5 -388
-53 -194 -186 -358 -362 -447 -48 -24 -936 -374 -983 -388 -18 -4 -18 19 -14
574 3 502 6 587 20 642 75 281 274 474 548 532 73 15 245 5 324 -20z"/>
<path d="M3925 4334 c-487 -88 -895 -451 -1033 -919 -73 -243 -69 -537 8 -778
64 -199 166 -363 325 -522 203 -203 432 -323 708 -371 129 -22 398 -15 517 14
227 55 410 146 582 290 70 59 188 186 188 204 0 4 -110 83 -245 177 l-244 170
-78 -78 c-64 -64 -95 -87 -173 -124 -344 -166 -737 -53 -922 263 -66 112 -173
100 906 100 l944 0 5 23 c31 123 32 357 1 517 -100 530 -526 950 -1048 1035
-114 19 -335 18 -441 -1z m420 -602 c127 -40 232 -111 310 -210 46 -58 105
-164 105 -189 0 -11 -108 -13 -620 -13 -448 0 -620 3 -620 11 0 21 60 124 105
181 87 108 236 200 380 232 90 20 256 14 340 -12z"/>
<path d="M6693 4335 c-220 -40 -438 -155 -617 -325 -194 -184 -317 -395 -382
-652 -35 -140 -45 -397 -20 -543 91 -533 502 -967 1015 -1070 128 -26 382 -16
511 19 158 44 294 117 419 224 l51 44 0 -116 0 -116 313 2 312 3 3 1233 2
1232 -315 0 -315 0 0 -110 0 -110 -87 69 c-152 118 -297 184 -482 216 -104 18
-309 18 -408 0z m506 -610 c435 -146 612 -700 350 -1102 -213 -327 -672 -401
-996 -160 -110 82 -195 210 -245 367 -30 97 -33 298 -5 400 54 200 192 369
375 460 154 76 355 90 521 35z"/>
<path d="M9730 4344 c-14 -2 -59 -9 -100 -15 -106 -16 -248 -63 -365 -121
-359 -179 -609 -505 -702 -913 -27 -122 -25 -417 5 -541 41 -174 95 -299 187
-439 198 -300 490 -495 856 -572 118 -24 373 -24 489 0 200 43 388 127 542
243 89 66 227 205 277 278 l30 43 -235 179 c-129 98 -240 180 -247 181 -6 1
-28 -23 -47 -53 -43 -69 -149 -171 -221 -212 -141 -80 -319 -109 -479 -78
-401 78 -639 486 -530 909 58 228 236 422 454 494 70 23 98 27 206 27 143 1
227 -19 338 -81 79 -44 186 -143 232 -217 19 -30 40 -54 47 -53 6 1 117 83
246 181 l235 180 -29 42 c-50 73 -188 212 -278 280 -149 112 -352 203 -535
240 -71 14 -328 27 -376 18z"/>
<path d="M12101 4334 c-456 -77 -854 -414 -1015 -862 -94 -263 -94 -600 0
-864 152 -425 505 -742 944 -848 129 -31 383 -39 517 -16 477 83 876 423 1027
876 48 144 66 260 66 420 0 361 -125 665 -380 921 -204 205 -434 325 -714 374
-109 19 -329 18 -445 -1z m440 -607 c283 -95 459 -336 476 -647 18 -344 -175
-635 -487 -732 -108 -33 -303 -33 -405 1 -118 39 -184 80 -276 171 -73 73 -94
101 -132 180 -63 131 -81 221 -75 374 8 203 70 347 208 487 61 61 94 85 170
123 125 62 196 77 335 72 84 -3 129 -10 186 -29z"/>
<path d="M14990 4336 c-557 -88 -984 -491 -1102 -1039 -17 -81 -22 -135 -22
-262 0 -127 5 -181 22 -262 113 -525 512 -919 1042 -1029 103 -22 371 -25 470
-6 240 47 465 155 643 310 70 62 184 187 211 233 l16 27 -231 177 c-127 97
-236 178 -243 181 -7 3 -25 -14 -41 -38 -142 -215 -369 -331 -620 -315 -177
11 -313 73 -440 201 -87 87 -135 166 -177 291 -20 61 -23 89 -23 225 0 135 3
164 23 224 49 146 132 272 230 351 325 258 777 185 1007 -163 16 -24 33 -41
40 -39 25 10 476 360 473 368 -8 23 -157 194 -208 238 -191 167 -401 271 -633
316 -112 22 -331 28 -437 11z"/>
<path d="M20010 4225 c-106 -30 -195 -103 -247 -205 -25 -50 -28 -65 -28 -155
0 -93 2 -105 32 -166 39 -79 102 -140 181 -177 50 -24 70 -27 157 -27 91 0
105 3 159 30 109 55 183 154 207 278 21 105 -23 239 -106 322 -91 92 -236 133
-355 100z"/>
<path d="M20025 3194 c-88 -22 -189 -91 -233 -161 -122 -191 -55 -434 148
-540 51 -26 64 -28 165 -28 122 0 156 11 242 81 78 64 142 217 128 307 -32
205 -164 334 -353 342 -42 2 -86 2 -97 -1z"/>
</g>
</svg>
