<?xml version="1.0" standalone="no"?>
<!DOCTYPE svg PUBLIC "-//W3C//DTD SVG 20010904//EN"
 "http://www.w3.org/TR/2001/REC-SVG-20010904/DTD/svg10.dtd">
<svg version="1.0" xmlns="http://www.w3.org/2000/svg"
 width="2560.000000pt" height="1440.000000pt" viewBox="0 0 2560.000000 1440.000000"
 preserveAspectRatio="xMidYMid meet">

<g transform="translate(0.000000,1440.000000) scale(0.100000,-0.100000)"
fill="#000000" stroke="none">
<path d="M7608 10269 c-8 -19 -59 -162 -113 -319 -53 -157 -101 -289 -105
-294 -5 -4 -155 92 -335 213 -180 122 -330 221 -334 219 -8 -3 30 -257 70
-481 12 -65 19 -120 16 -123 -2 -3 -40 22 -84 55 -119 90 -376 241 -388 229
-2 -2 21 -39 51 -83 67 -96 187 -335 232 -460 46 -127 39 -122 113 -81 83 45
270 125 384 164 372 126 756 177 1135 152 166 -11 410 -48 509 -76 29 -8 59
-13 66 -11 7 3 15 33 18 71 15 161 71 400 128 544 16 40 29 75 29 78 0 22
-237 -201 -326 -307 -55 -65 -69 -77 -75 -62 -3 10 -14 146 -24 303 -10 157
-20 288 -24 292 -3 3 -127 -124 -275 -283 -148 -159 -273 -288 -277 -287 -5 2
-79 113 -165 248 -86 135 -169 265 -184 289 l-28 44 -14 -34z"/>
<path d="M7845 9294 c-347 -36 -685 -123 -940 -244 l-90 -43 41 -8 c102 -19
213 -100 279 -204 28 -45 48 -85 42 -85 -1 0 -37 17 -80 39 -299 150 -548 1
-547 -327 0 -91 22 -187 64 -285 20 -44 34 -82 32 -84 -5 -6 -91 56 -123 89
-52 54 -99 143 -123 231 -28 104 -25 251 8 336 12 30 20 57 17 59 -9 9 -186
-138 -304 -253 -152 -148 -259 -274 -360 -426 -84 -124 -176 -287 -168 -295 2
-3 65 -14 138 -26 74 -12 136 -23 138 -24 2 -2 -15 -27 -38 -56 -117 -145
-260 -395 -345 -601 -109 -263 -210 -687 -165 -687 8 0 77 20 154 44 215 67
295 89 300 85 2 -3 0 -22 -5 -44 -5 -22 -17 -101 -26 -175 -20 -168 -15 -600
10 -780 30 -217 86 -425 151 -564 52 -110 43 -108 127 -41 182 147 446 442
638 713 40 57 76 100 80 95 4 -4 19 -55 34 -113 90 -350 89 -740 -3 -1220 -16
-85 -27 -158 -25 -162 10 -15 178 -90 276 -124 53 -18 153 -44 222 -59 122
-26 131 -27 418 -23 286 4 296 5 423 35 282 67 550 178 737 304 31 22 61 39
66 39 5 0 28 -75 52 -167 24 -93 45 -170 47 -172 5 -7 112 68 212 147 427 339
702 820 772 1350 7 51 16 91 20 90 4 -2 53 -54 110 -116 56 -62 106 -109 110
-105 9 10 51 150 83 278 105 419 90 897 -41 1310 -49 154 -152 385 -244 548
-57 99 -196 314 -210 322 -4 3 -10 -21 -14 -52 -8 -69 -12 -86 -23 -81 -4 2
-52 49 -107 106 l-100 104 38 30 c29 23 37 37 37 61 -1 62 -71 177 -108 177
-24 0 -132 -62 -152 -88 l-20 -24 -47 35 c-55 40 -172 101 -179 94 -3 -3 14
-31 39 -64 24 -32 61 -86 82 -121 29 -48 65 -85 144 -149 106 -86 271 -241
271 -255 0 -4 -19 2 -43 12 -24 11 -86 27 -138 36 -151 26 -398 6 -491 -41
l-31 -15 -198 202 c-186 188 -199 204 -199 238 0 48 16 95 52 149 16 24 26 46
23 49 -11 11 -116 -30 -172 -68 l-58 -39 -30 20 c-56 38 -247 128 -316 151
-68 22 -69 22 -145 4 -43 -10 -112 -36 -154 -58 -76 -39 -190 -121 -190 -137
0 -4 24 -21 53 -37 162 -90 262 -114 470 -114 126 0 185 -7 220 -26 59 -33
408 -376 395 -389 -2 -2 -31 4 -64 14 -102 32 -234 42 -534 39 -251 -3 -293
-1 -350 15 -209 59 -382 228 -405 396 -4 28 -10 53 -15 56 -4 2 -51 11 -105
19 -53 8 -100 17 -103 21 -3 3 10 22 29 41 67 71 181 154 275 201 l95 47 -48
43 c-26 23 -51 42 -55 43 -23 1 -1 30 50 66 164 119 381 210 624 264 138 31
150 30 263 -30 104 -55 313 -183 399 -244 46 -33 51 -34 62 -17 19 27 52 131
60 189 3 29 12 52 18 52 19 0 146 -64 236 -120 146 -90 282 -191 423 -313 37
-33 67 -56 67 -53 0 3 -22 58 -48 123 -50 121 -85 240 -98 326 -5 38 -14 56
-41 80 -71 66 -198 148 -316 206 -115 57 -347 142 -429 156 l-37 7 25 -71 c22
-63 46 -196 37 -205 -2 -1 -49 43 -106 99 -103 103 -172 158 -261 210 l-49 29
-216 2 c-119 1 -234 0 -256 -2z m1162 -1888 c54 -38 176 -104 241 -128 l42
-16 0 -179 0 -178 -97 -76 c-259 -201 -456 -305 -619 -328 -35 -5 -72 -7 -82
-4 -11 3 -45 53 -87 131 -38 70 -104 191 -147 270 -43 78 -78 146 -78 150 0 9
129 101 238 170 174 111 428 221 509 222 22 0 49 -12 80 -34z m793 -101 c58
-183 74 -413 39 -575 -13 -64 -58 -180 -69 -180 -4 0 -28 35 -53 78 -25 42
-84 120 -131 172 l-85 94 -3 174 c-2 96 -1 178 2 182 3 4 53 39 111 78 58 39
112 78 119 87 13 16 15 15 27 -1 8 -10 27 -59 43 -109z m-271 -808 c61 -80
105 -182 104 -242 0 -82 -63 -237 -144 -356 -35 -52 -172 -189 -189 -189 -4 0
-10 48 -14 108 -7 106 -31 250 -44 264 -4 4 -30 -10 -57 -31 -69 -51 -146 -93
-240 -128 -143 -54 -120 -67 -224 123 -50 91 -89 169 -86 174 2 4 26 10 53 14
88 11 314 135 469 257 l62 48 128 4 c70 1 131 4 135 5 4 1 25 -22 47 -51z"/>
<path d="M11207 9243 c-4 -3 -7 -471 -7 -1040 l0 -1033 205 0 205 0 0 339 0
339 208 4 c176 4 219 8 287 28 254 71 435 250 491 485 20 85 23 274 5 360 -7
33 -32 102 -57 152 -93 194 -279 323 -526 363 -69 11 -801 14 -811 3z m734
-383 c107 -21 186 -78 230 -167 34 -69 34 -207 0 -277 -32 -64 -82 -113 -150
-145 -53 -24 -67 -26 -233 -29 l-178 -4 0 316 0 316 139 0 c76 0 162 -5 192
-10z"/>
<path d="M17462 9172 c-51 -21 -103 -69 -126 -117 -25 -51 -23 -145 4 -200 75
-155 304 -170 402 -27 57 83 50 204 -15 279 -65 74 -174 101 -265 65z"/>
<path d="M14135 8550 c-143 -37 -242 -96 -341 -203 -73 -78 -122 -163 -160
-277 -24 -75 -27 -101 -28 -220 -1 -152 15 -223 81 -355 43 -85 169 -215 255
-263 284 -158 668 -122 908 84 92 78 94 65 -35 194 l-113 113 -41 -35 c-186
-159 -470 -157 -606 4 -29 34 -64 103 -65 126 0 9 108 12 505 12 l505 0 0 119
c0 250 -83 438 -254 580 -65 53 -181 109 -264 127 -95 20 -261 17 -347 -6z
m329 -339 c78 -38 136 -107 161 -188 l6 -23 -315 0 c-355 0 -335 -5 -296 75
28 58 88 112 156 141 81 34 214 31 288 -5z"/>
<path d="M15745 8556 c-76 -24 -140 -75 -195 -155 l-24 -35 -21 85 -20 84
-165 0 -165 0 0 -680 0 -680 187 -3 187 -2 3 442 c3 428 4 445 24 489 30 63
78 98 156 111 107 18 183 -17 231 -106 22 -40 22 -49 25 -488 l3 -448 189 0
190 0 0 433 c0 489 1 499 70 561 82 74 225 72 299 -4 64 -66 64 -69 68 -552
l4 -438 185 0 184 0 0 483 c0 457 -1 486 -21 557 -42 153 -124 255 -255 317
-70 33 -86 37 -183 41 -180 7 -271 -27 -381 -145 l-61 -65 -17 23 c-59 84
-151 150 -244 175 -65 17 -199 17 -253 0z"/>
<path d="M18434 8556 c-414 -94 -645 -526 -510 -952 99 -313 430 -508 789
-465 179 21 365 108 471 219 l29 31 -108 113 c-59 62 -111 115 -116 116 -5 2
-29 -14 -53 -35 -89 -78 -210 -118 -341 -111 -137 8 -239 70 -294 179 -17 34
-28 65 -25 70 3 5 229 9 504 9 l498 0 7 63 c9 78 -8 223 -36 314 -45 144 -163
295 -291 371 -108 64 -188 85 -333 89 -85 1 -151 -2 -191 -11z m312 -344 c62
-32 102 -69 134 -126 53 -92 74 -86 -285 -86 -359 0 -338 -6 -285 86 35 62 88
108 155 134 70 28 221 24 281 -8z"/>
<path d="M13316 8525 c-74 -30 -122 -68 -161 -128 -16 -25 -33 -46 -36 -46 -3
-1 -15 41 -25 92 l-19 92 -162 3 -163 2 0 -685 0 -685 185 2 185 3 3 380 c3
325 6 387 20 432 24 73 73 133 137 168 52 29 61 30 173 30 l117 0 0 176 c0
152 -2 178 -16 183 -9 3 -52 6 -97 6 -64 0 -95 -6 -141 -25z"/>
<path d="M20006 8525 c-75 -30 -123 -69 -161 -128 -16 -25 -33 -46 -36 -46 -3
-1 -15 41 -25 92 l-19 92 -162 3 -163 2 0 -685 0 -685 185 2 185 3 3 380 c3
325 6 387 20 432 27 80 72 133 147 171 64 33 67 33 173 30 l107 -3 0 176 c0
152 -2 178 -16 183 -9 3 -52 6 -97 6 -64 0 -95 -6 -141 -25z"/>
<path d="M17360 7855 l0 -685 185 0 185 0 0 685 0 685 -185 0 -185 0 0 -685z"/>
<path d="M11202 5928 l3 -1013 640 0 640 0 3 188 2 187 -440 0 -440 0 0 825 0
825 -205 0 -205 0 2 -1012z"/>
<path d="M13155 6306 c-194 -38 -355 -145 -460 -306 -82 -126 -116 -249 -116
-415 1 -329 185 -578 501 -677 65 -20 95 -23 230 -23 177 0 244 15 381 86 74
38 184 123 202 155 7 13 -15 41 -103 129 l-113 114 -46 -39 c-68 -56 -139 -89
-232 -107 -137 -28 -251 2 -345 89 -35 32 -94 128 -94 152 0 3 225 6 499 6
389 0 502 3 508 13 13 21 6 229 -11 306 -27 126 -87 233 -185 332 -93 93 -176
142 -296 174 -83 22 -234 28 -320 11z m274 -346 c81 -36 184 -162 167 -206 -8
-21 -614 -21 -622 0 -8 20 39 106 78 142 38 36 101 70 155 84 57 14 164 4 222
-20z"/>
<path d="M19445 6306 c-194 -38 -354 -145 -461 -307 -81 -124 -116 -247 -116
-409 1 -335 182 -581 502 -682 65 -20 95 -23 230 -23 135 0 165 3 230 23 114
36 222 97 298 167 l67 64 -114 114 -114 115 -52 -42 c-70 -57 -129 -84 -226
-104 -137 -27 -251 3 -345 90 -35 32 -94 128 -94 152 0 3 225 6 499 6 367 0
502 3 507 12 4 6 7 61 7 122 -2 225 -60 374 -203 516 -92 93 -179 144 -295
175 -83 22 -235 28 -320 11z m268 -344 c60 -26 131 -93 157 -146 39 -81 59
-76 -290 -76 -255 0 -312 2 -316 14 -10 25 37 105 88 151 92 83 247 107 361
57z"/>
<path d="M14636 6284 c-239 -58 -442 -267 -507 -524 -18 -71 -21 -102 -16
-195 7 -127 25 -195 88 -316 85 -165 265 -309 444 -354 68 -17 209 -19 275 -4
79 18 172 70 236 130 l60 59 21 -83 20 -82 164 0 164 0 3 683 2 682 -167 -2
-167 -3 -20 -81 -21 -82 -54 55 c-59 61 -144 107 -230 123 -75 14 -225 11
-295 -6z m376 -351 c70 -32 141 -103 174 -176 26 -55 29 -73 29 -157 0 -82 -4
-103 -26 -151 -36 -76 -86 -129 -161 -170 -60 -32 -68 -34 -163 -34 -90 0
-106 3 -158 29 -73 37 -149 118 -176 191 -30 79 -29 200 2 276 42 100 118 172
220 205 62 20 200 13 259 -13z"/>
<path d="M16280 6285 c-135 -31 -232 -86 -340 -195 -69 -68 -94 -102 -128
-171 -52 -104 -75 -205 -74 -324 0 -124 24 -223 78 -334 38 -77 62 -110 128
-176 136 -137 265 -194 457 -203 90 -4 128 -1 175 13 76 22 148 58 201 101 23
19 45 34 49 34 9 0 -3 -165 -16 -212 -6 -21 -25 -57 -43 -80 -71 -93 -183
-138 -345 -138 -136 0 -254 43 -366 135 l-55 45 -39 -53 c-156 -213 -166 -229
-156 -245 6 -10 41 -40 78 -68 156 -118 333 -174 552 -174 159 0 259 22 389
86 187 91 293 217 348 413 20 74 21 97 25 809 l3 732 -167 -2 -168 -3 -19 -75
c-10 -41 -20 -76 -22 -78 -1 -2 -26 20 -55 48 -57 56 -128 96 -205 116 -61 17
-211 16 -285 -1z m365 -359 c107 -53 173 -143 196 -269 14 -75 2 -151 -33
-221 -31 -60 -105 -133 -167 -163 -50 -25 -67 -28 -156 -28 -90 0 -105 3 -153
28 -75 39 -124 87 -163 159 -33 60 -34 67 -34 168 1 88 4 113 24 153 25 53 77
116 123 148 93 67 254 78 363 25z"/>
<path d="M17390 5858 c0 -389 2 -430 20 -507 52 -218 202 -375 420 -443 64
-20 96 -23 225 -23 129 0 161 3 225 23 109 34 196 86 270 161 76 77 119 154
151 266 22 76 23 100 27 513 l3 432 -190 0 -191 0 0 -377 c0 -279 -4 -393 -14
-434 -36 -157 -144 -236 -305 -227 -156 9 -237 88 -261 254 -5 38 -10 230 -10
427 l0 357 -185 0 -185 0 0 -422z"/>
</g>
</svg>
