<?xml version="1.0" standalone="no"?>
<!DOCTYPE svg PUBLIC "-//W3C//DTD SVG 20010904//EN"
 "http://www.w3.org/TR/2001/REC-SVG-20010904/DTD/svg10.dtd">
<svg version="1.0" xmlns="http://www.w3.org/2000/svg"
 width="2560.000000pt" height="1440.000000pt" viewBox="0 0 2560.000000 1440.000000"
 preserveAspectRatio="xMidYMid meet">

<g transform="translate(0.000000,1440.000000) scale(0.100000,-0.100000)"
fill="#000000" stroke="none">
<path d="M15898 9905 c-148 -37 -232 -145 -231 -295 1 -118 53 -209 147 -257
43 -23 67 -28 151 -31 84 -3 109 0 156 17 126 48 183 136 183 281 0 72 -5 93
-27 136 -63 123 -227 188 -379 149z"/>
<path d="M17990 9870 c-19 -19 -20 -33 -20 -485 0 -273 -4 -465 -9 -465 -5 0
-40 18 -78 39 -159 91 -350 133 -515 113 -235 -29 -424 -139 -548 -318 -110
-160 -172 -350 -192 -591 -40 -479 125 -882 432 -1056 66 -37 206 -77 304 -85
209 -19 388 31 563 154 70 50 70 50 92 -34 19 -68 30 -72 252 -74 107 -1 204
1 216 5 12 5 26 22 32 39 15 43 15 2695 0 2735 -5 15 -16 31 -22 35 -7 4 -119
8 -249 8 -225 0 -239 -1 -258 -20z m-154 -1254 c45 -14 93 -35 108 -47 l26
-20 0 -494 c0 -548 5 -507 -69 -544 -141 -72 -345 -86 -466 -32 -101 45 -176
148 -217 300 -29 105 -31 374 -5 506 39 194 122 305 262 352 67 22 263 11 361
-21z"/>
<path d="M21717 9070 c-182 -21 -352 -85 -481 -182 -216 -162 -349 -484 -349
-843 0 -165 19 -285 69 -435 96 -287 259 -456 527 -545 295 -98 611 -81 864
46 222 111 378 315 438 573 49 211 44 583 -10 756 -32 99 -92 225 -140 290
-67 92 -183 189 -290 243 -163 82 -416 121 -628 97z m294 -457 c97 -43 163
-126 205 -258 32 -98 48 -338 32 -479 -25 -231 -122 -384 -271 -428 -69 -20
-203 -15 -268 10 -103 41 -183 146 -225 298 -25 92 -31 393 -9 509 38 202 135
328 282 365 61 15 202 6 254 -17z"/>
<path d="M19620 9031 c-392 -83 -639 -373 -711 -833 -17 -112 -7 -348 21 -478
26 -124 73 -256 121 -337 46 -77 169 -199 249 -246 86 -49 196 -91 300 -114
129 -27 457 -25 596 5 126 27 282 77 312 100 30 23 41 75 42 182 0 120 -8 158
-37 177 -23 15 -33 14 -156 -15 -200 -48 -265 -55 -432 -49 -114 4 -166 10
-215 26 -166 53 -259 167 -292 362 -7 37 -10 71 -7 73 3 3 41 -1 84 -10 119
-21 381 -29 504 -15 334 39 532 165 604 384 32 97 29 275 -6 382 -32 97 -90
188 -159 250 -73 65 -212 131 -328 155 -127 26 -367 27 -490 1z m365 -385 c83
-35 124 -102 125 -201 0 -83 -14 -126 -56 -168 -70 -70 -192 -92 -418 -77
-181 12 -210 19 -214 48 -5 30 24 136 54 201 48 105 122 173 227 207 57 19
228 13 282 -10z"/>
<path d="M13600 9012 c-35 -2 -70 -8 -77 -14 -20 -16 -15 -73 11 -141 22 -56
339 -880 569 -1482 67 -176 100 -249 124 -275 l31 -35 221 -3 c237 -3 263 1
295 51 23 35 686 1763 701 1829 5 19 1 32 -14 47 -20 20 -31 21 -261 21 l-240
0 -29 -27 c-26 -24 -41 -65 -115 -313 -318 -1071 -316 -1063 -324 -1072 -4 -4
-76 230 -160 520 -267 919 -253 878 -295 886 -30 6 -356 12 -437 8z"/>
<path d="M15738 8999 c-10 -5 -22 -26 -28 -47 -13 -47 -13 -1770 0 -1827 5
-22 17 -45 26 -52 13 -10 77 -13 250 -13 213 0 234 2 255 19 l24 19 0 937 0
937 -24 19 c-21 17 -41 19 -255 19 -135 0 -238 -5 -248 -11z"/>
</g>
</svg>
