<?xml version="1.0" standalone="no"?>
<!DOCTYPE svg PUBLIC "-//W3C//DTD SVG 20010904//EN"
 "http://www.w3.org/TR/2001/REC-SVG-20010904/DTD/svg10.dtd">
<svg version="1.0" xmlns="http://www.w3.org/2000/svg"
 width="495.000000pt" height="119.000000pt" viewBox="0 0 495.000000 119.000000"
 preserveAspectRatio="xMidYMid meet">

<g transform="translate(0.000000,119.000000) scale(0.100000,-0.100000)"
fill="#000000" stroke="none">
<path d="M1695 1085 l-25 -24 0 -236 c0 -221 1 -235 18 -227 25 13 201 25 182
12 -8 -5 -49 -10 -91 -10 -113 0 -109 9 -109 -256 0 -183 3 -223 16 -242 l15
-22 1564 0 c1408 0 1565 2 1579 16 14 13 16 57 16 326 0 267 -2 309 -14 299
-8 -7 -35 -11 -63 -8 l-48 3 51 2 c27 1 55 7 62 14 13 13 17 325 4 344 -22 34
-35 34 -1592 34 l-1541 0 -24 -25z m2303 -202 l3 -52 97 -3 c93 -3 97 -4 100
-26 6 -43 -13 -52 -107 -52 l-86 0 -3 -143 c-2 -101 1 -149 10 -166 18 -35 64
-44 124 -26 47 14 50 14 67 -7 10 -11 16 -26 14 -32 -7 -21 -61 -39 -126 -43
-80 -5 -125 15 -156 67 -18 32 -20 55 -23 271 -3 211 -1 238 14 253 9 10 28
16 43 14 24 -3 26 -7 29 -55z m-1795 -63 c29 -9 37 -16 37 -34 0 -39 -23 -50
-74 -37 -25 6 -71 11 -103 11 -72 0 -106 -20 -101 -58 4 -32 36 -50 148 -83
101 -30 150 -76 150 -140 0 -56 -27 -100 -76 -125 -46 -23 -202 -26 -271 -6
-38 11 -43 16 -43 43 0 38 17 44 82 28 115 -27 208 -10 221 41 10 37 -30 67
-127 94 -111 32 -146 52 -169 98 -33 68 5 143 90 174 43 16 172 13 236 -6z
m221 10 c19 -7 26 -17 26 -35 l0 -26 33 24 c120 90 295 40 354 -100 22 -54 17
-170 -11 -228 -59 -128 -220 -175 -331 -97 l-45 32 0 -105 c0 -96 -2 -105 -21
-115 -11 -7 -32 -9 -45 -6 l-24 6 0 220 0 220 -112 2 -113 2 113 3 112 4 0 99
c0 85 2 99 18 103 9 3 18 5 19 6 1 0 13 -3 27 -9z m847 -5 c98 -35 156 -111
165 -216 9 -107 -34 -194 -124 -246 -41 -24 -58 -28 -127 -28 -69 0 -86 4
-127 28 -116 68 -161 217 -102 335 58 116 192 170 315 127z m340 5 c13 -8 19
-21 19 -47 l0 -37 28 26 c44 42 88 59 140 56 40 -3 47 -6 50 -26 5 -30 -14
-52 -46 -52 -50 0 -103 -24 -137 -62 l-35 -38 0 -150 c0 -141 -1 -150 -21
-160 -11 -7 -32 -9 -45 -6 l-24 6 0 244 c0 225 1 245 18 249 28 8 33 7 53 -3z
m962 -1 c69 -14 85 -29 68 -65 -10 -23 -16 -25 -44 -20 -81 15 -183 17 -207 4
-31 -17 -38 -58 -13 -80 10 -8 64 -30 120 -47 144 -44 187 -93 162 -184 -21
-76 -103 -113 -234 -104 -113 8 -155 22 -155 51 0 33 24 50 57 41 152 -39 267
-11 249 59 -8 31 -34 44 -156 80 -146 43 -195 129 -122 216 48 56 150 74 275
49z m90 -126 c-40 -2 -106 -2 -145 0 -40 1 -8 3 72 3 80 0 112 -2 73 -3z
m-463 -13 c-30 -5 -84 -8 -120 -7 l-65 1 75 6 c41 4 95 7 120 7 44 0 44 0 -10
-7z m228 3 c-10 -2 -28 -2 -40 0 -13 2 -5 4 17 4 22 1 32 -1 23 -4z m-538 -13
c-8 -5 -62 -9 -120 -8 l-105 2 105 6 c58 3 112 7 120 8 13 1 13 1 0 -8z m-377
-17 c-13 -2 -35 -2 -50 0 -16 2 -5 4 22 4 28 0 40 -2 28 -4z m-605 -20 c-10
-2 -26 -2 -35 0 -10 3 -2 5 17 5 19 0 27 -2 18 -5z"/>
<path d="M2518 740 c-59 -32 -68 -52 -68 -160 0 -92 1 -97 28 -122 41 -38 70
-50 122 -50 81 0 133 39 156 119 14 48 14 58 0 106 -19 62 -30 78 -76 106 -44
27 -112 27 -162 1z m217 -100 c-4 -6 -60 -9 -143 -8 l-137 2 125 6 c69 3 133
7 143 8 10 1 15 -2 12 -8z"/>
<path d="M3120 749 c-80 -33 -124 -155 -86 -242 44 -104 178 -134 260 -59 81
75 73 219 -16 285 -31 23 -120 32 -158 16z m190 -89 c-8 -5 -71 -9 -140 -8
l-125 2 125 6 c69 3 132 7 140 8 13 1 13 1 0 -8z"/>
<path d="M580 1043 c-8 -3 -25 -15 -37 -26 -23 -20 -23 -21 -23 -359 l0 -338
48 0 c27 0 57 7 70 16 l22 15 0 350 0 349 -32 -1 c-18 0 -40 -3 -48 -6z"/>
<path d="M143 850 c-111 -26 -167 -139 -113 -228 29 -46 70 -68 171 -87 50
-10 99 -25 111 -34 19 -16 19 -18 3 -34 -13 -14 -37 -17 -133 -17 -64 0 -122
-4 -128 -8 -18 -12 -34 -49 -34 -80 0 -25 5 -30 31 -36 50 -10 251 -7 291 4
83 23 134 97 122 176 -12 85 -55 116 -201 144 -105 20 -124 31 -107 58 9 14
30 17 126 20 132 3 150 12 152 79 1 36 0 38 -39 45 -51 9 -211 8 -252 -2z"/>
<path d="M905 842 c-36 -22 -225 -225 -225 -241 0 -26 155 -253 181 -267 32
-16 135 -19 144 -4 3 6 -32 67 -80 136 l-86 126 64 65 64 65 101 -159 102
-160 -61 -127 c-33 -70 -58 -131 -54 -134 4 -4 31 -7 61 -7 40 0 58 5 73 20
16 15 321 673 321 690 0 12 -74 15 -104 5 -42 -13 -59 -39 -116 -175 -23 -55
-46 -104 -50 -108 -4 -5 -49 59 -100 142 l-92 151 -56 0 c-38 0 -67 -6 -87
-18z"/>
</g>
</svg>
