<?xml version="1.0" standalone="no"?>
<!DOCTYPE svg PUBLIC "-//W3C//DTD SVG 20010904//EN"
 "http://www.w3.org/TR/2001/REC-SVG-20010904/DTD/svg10.dtd">
<svg version="1.0" xmlns="http://www.w3.org/2000/svg"
 width="360.000000pt" height="360.000000pt" viewBox="0 0 360.000000 360.000000"
 preserveAspectRatio="xMidYMid meet">

<g transform="translate(0.000000,360.000000) scale(0.100000,-0.100000)"
fill="#000000" stroke="none">
<path d="M960 2658 c-50 -18 -83 -49 -340 -310 -157 -160 -293 -304 -302 -322
-21 -38 -23 -86 -4 -129 8 -18 59 -97 114 -177 56 -80 156 -225 224 -324 157
-227 195 -255 368 -270 41 -3 152 -13 245 -21 94 -8 278 -24 410 -35 132 -11
337 -30 455 -40 370 -35 351 -34 388 -10 40 25 64 76 92 194 25 106 49 158
104 214 76 80 139 99 261 80 59 -10 71 -14 45 -16 -25 -2 -53 -18 -97 -55 -34
-29 -114 -92 -177 -142 -109 -86 -116 -93 -132 -145 -24 -80 -41 -108 -77
-130 -81 -50 108 6 223 66 164 85 343 240 410 357 36 62 37 73 8 53 -13 -9
-42 -16 -68 -15 -33 0 -40 3 -25 9 11 4 32 6 47 3 38 -7 75 32 82 88 6 49 39
424 57 655 11 142 11 153 -7 190 -35 71 -5 66 -834 139 -739 64 -813 70 -1150
100 -214 19 -254 18 -320 -7z m160 -78 c0 -5 -6 -10 -12 -10 -7 0 -30 -3 -50
-6 -24 -4 -38 -3 -38 4 0 10 27 17 78 21 12 0 22 -3 22 -9z m93 0 c15 0 27 -4
27 -10 0 -11 -59 -14 -84 -4 -25 9 -19 27 7 20 12 -3 34 -6 50 -6z m113 -10
c19 0 34 -4 34 -10 0 -11 -59 -14 -84 -4 -9 3 -16 11 -16 16 0 6 7 7 16 4 9
-3 31 -6 50 -6z m154 -21 c0 -12 -87 -12 -94 0 -3 4 -4 10 -1 12 7 8 95 -3 95
-12z m-480 3 c0 -7 -30 -25 -82 -50 -5 -2 -8 1 -8 6 0 11 58 50 78 51 6 1 12
-3 12 -7z m600 -14 c0 -12 -92 -6 -97 7 -2 6 17 9 47 7 27 -2 50 -8 50 -14z
m120 -8 c0 -5 -22 -10 -50 -10 -27 0 -50 5 -50 10 0 6 23 10 50 10 28 0 50 -4
50 -10z m120 -10 c0 -5 -20 -10 -44 -10 -25 0 -48 5 -51 10 -4 6 13 10 44 10
28 0 51 -4 51 -10z m120 -10 c0 -5 -22 -10 -50 -10 -27 0 -50 5 -50 10 0 6 23
10 50 10 28 0 50 -4 50 -10z m120 -10 c0 -5 -22 -10 -50 -10 -27 0 -50 5 -50
10 0 6 23 10 50 10 28 0 50 -4 50 -10z m120 -10 c0 -5 -22 -10 -50 -10 -27 0
-50 5 -50 10 0 6 23 10 50 10 28 0 50 -4 50 -10z m-1300 -8 c0 -14 -59 -66
-67 -59 -3 4 6 21 22 37 28 30 45 38 45 22z m1415 -3 c4 -6 5 -11 4 -13 -9 -6
-99 7 -99 15 0 13 87 11 95 -2z m109 -5 c31 -12 15 -19 -34 -16 -27 2 -50 8
-50 13 0 10 60 12 84 3z m126 -14 c8 -5 12 -11 10 -14 -8 -8 -100 6 -100 15 0
12 71 11 90 -1z m120 -10 c8 -5 12 -11 10 -14 -8 -8 -100 6 -100 15 0 12 71
11 90 -1z m127 -14 c13 -12 -5 -16 -50 -10 -61 9 -62 28 -2 21 26 -2 49 -7 52
-11z m120 -10 c13 -12 -5 -16 -50 -10 -61 9 -62 28 -2 21 26 -2 49 -7 52 -11z
m122 -11 c11 -12 -11 -16 -53 -10 -26 4 -43 11 -40 17 6 9 82 3 93 -7z m91
-25 c38 -29 18 -33 -29 -7 -22 13 -39 26 -35 29 8 9 36 -1 64 -22z m-2344 -28
c-19 -20 -39 -33 -42 -29 -10 10 57 78 69 70 5 -3 -7 -22 -27 -41z m2392 -76
c2 -30 -1 -46 -7 -42 -5 4 -9 14 -9 24 1 9 -2 30 -6 45 -5 22 -4 28 6 25 8 -3
14 -24 16 -52z m-2448 26 c0 -4 -16 -23 -35 -42 -41 -40 -48 -20 -8 22 27 28
43 35 43 20z m-112 -119 c-21 -20 -41 -34 -44 -30 -10 10 46 67 65 67 10 0 3
-13 -21 -37z m2559 -18 c-4 -44 -12 -63 -21 -54 -8 8 7 99 17 99 6 0 8 -18 4
-45z m-2643 -69 c-28 -34 -44 -44 -44 -28 0 11 62 74 67 68 3 -3 -7 -21 -23
-40z m1479 19 c-1 -5 -8 -14 -17 -20 -18 -11 -42 7 -31 25 8 13 51 9 48 -5z
m233 -1 c-3 -8 -14 -45 -23 -82 -18 -70 -27 -84 -50 -75 -18 7 -17 24 7 104
19 62 23 69 46 69 20 0 25 -4 20 -16z m-720 -19 c6 -16 -12 -45 -27 -45 -5 0
-9 9 -9 20 0 21 -24 27 -36 9 -4 -7 7 -22 25 -36 38 -30 39 -55 5 -82 -43 -34
-110 -24 -102 15 5 26 50 33 46 7 -2 -10 3 -18 11 -18 27 0 22 23 -9 45 -37
26 -38 52 -4 79 32 25 92 28 100 6z m628 -19 c-1 -4 -7 -27 -13 -52 -6 -25 -9
-49 -6 -55 7 -10 6 -11 -55 -14 -25 -2 -51 1 -57 7 -31 25 -4 100 41 118 23 9
92 6 90 -4z m1015 -13 c-1 -40 -14 -79 -21 -67 -9 14 3 94 13 94 5 0 9 -12 8
-27z m-1518 8 c15 -3 19 -36 8 -68 -10 -32 -51 -63 -82 -63 -8 0 -17 -9 -20
-20 -5 -19 -47 -30 -47 -12 0 22 43 158 51 163 9 5 67 5 90 0z m146 -7 c9 -23
-9 -48 -41 -56 -33 -10 -33 -24 0 -21 13 1 24 -2 24 -6 0 -18 -30 -32 -62 -29
-30 3 -33 6 -36 40 -3 29 2 43 22 63 29 29 83 34 93 9z m128 -9 c0 -11 -8 -21
-17 -23 -11 -2 -18 3 -18 12 0 27 -18 18 -29 -16 -14 -38 -2 -55 28 -39 16 9
21 9 21 -2 0 -22 -22 -37 -57 -37 -44 0 -59 27 -39 74 17 41 41 57 81 53 22
-1 30 -7 30 -22z m65 -37 c-11 -39 -23 -64 -33 -66 -25 -5 -30 17 -17 74 12
49 16 54 40 54 l27 0 -17 -62z m-1512 25 c-2 -5 -12 -25 -21 -45 -19 -41 -43
-53 -32 -15 10 32 34 67 46 67 6 0 9 -3 7 -7z m185 -54 c29 -16 37 -28 37 -62
0 -38 -40 -77 -80 -77 -37 0 -80 39 -79 72 0 21 1 21 8 4 6 -17 9 -15 20 12 7
17 22 34 33 38 11 3 17 8 14 11 -3 3 -17 -2 -31 -11 -14 -9 -25 -13 -25 -8 0
11 39 30 63 31 10 1 28 -4 40 -10z m2493 -66 c-6 -48 -12 -61 -22 -51 -9 10 7
98 18 98 7 0 8 -17 4 -47z m-2710 -28 c6 -25 7 -48 3 -50 -8 -6 -29 49 -29 76
0 35 15 19 26 -26z m1339 -5 c11 -1 49 2 85 6 55 5 68 3 80 -11 19 -22 2 -49
-34 -53 -22 -3 -26 0 -26 22 0 31 -15 34 -30 7 -16 -30 -13 -64 5 -57 9 3 15
0 15 -9 0 -7 -10 -15 -22 -17 -19 -3 -27 -18 -51 -103 -16 -55 -34 -103 -40
-107 -21 -13 -90 -9 -84 5 17 46 57 200 53 205 -9 8 -68 4 -76 -5 -3 -4 -19
-54 -34 -110 l-28 -101 -45 -4 c-24 -2 -46 -2 -47 0 -2 2 9 47 25 100 34 115
34 119 12 125 -15 4 -14 6 5 12 13 4 29 23 37 42 19 44 64 65 130 58 28 -3 59
-5 70 -5z m-318 -35 c45 -30 39 -153 -12 -227 -59 -87 -220 -107 -254 -31 -41
90 24 232 124 268 45 17 108 12 142 -10z m1678 -52 c-7 -50 -11 -60 -21 -51
-9 10 7 98 18 98 7 0 8 -18 3 -47z m-2642 -13 c34 -50 18 -62 -17 -12 -27 40
-31 52 -17 52 4 0 20 -18 34 -40z m1570 21 c50 -19 37 -83 -23 -113 -19 -10
-47 -18 -62 -18 -31 0 -42 -12 -33 -40 8 -24 43 -26 71 -5 27 20 34 19 34 -10
0 -39 -52 -67 -114 -62 -79 7 -101 49 -74 140 25 85 123 137 201 108z m163 -6
c-5 -14 -4 -14 16 0 72 50 144 -20 83 -80 -13 -14 -36 -25 -50 -25 -22 0 -24
3 -15 19 13 25 13 61 0 61 -17 0 -38 -44 -58 -123 -11 -43 -22 -80 -24 -82 -3
-3 -76 -8 -90 -6 -4 1 0 25 8 54 60 205 53 193 113 196 17 1 22 -3 17 -14z
m-1666 -110 c31 -50 19 -67 -13 -20 -29 42 -33 55 -18 55 5 0 19 -16 31 -35z
m2564 -12 c-7 -52 -11 -60 -20 -50 -10 9 6 97 17 97 6 0 8 -18 3 -47z m-2496
-89 c32 -50 22 -67 -11 -19 -15 22 -27 43 -27 47 0 18 16 6 38 -28z m2486 -31
c-7 -51 -11 -60 -20 -51 -9 9 7 98 18 98 5 0 6 -19 2 -47z m-2416 -69 c22 -34
24 -53 4 -40 -6 3 -19 22 -31 41 -28 47 -4 46 27 -1z m68 -99 c26 -35 27 -59
2 -37 -20 17 -50 72 -39 72 5 0 22 -16 37 -35z m74 -94 c39 -32 36 -54 -3 -24
-28 20 -52 53 -39 53 4 0 23 -13 42 -29z m113 -63 c26 -10 37 -28 17 -28 -22
0 -80 30 -80 41 0 7 7 8 18 4 9 -4 29 -12 45 -17z m147 -28 c0 -5 -20 -10 -44
-10 -25 0 -48 5 -51 10 -4 6 13 10 44 10 28 0 51 -4 51 -10z m120 -10 c0 -5
-20 -10 -44 -10 -25 0 -48 5 -51 10 -4 6 13 10 44 10 28 0 51 -4 51 -10z m120
-10 c0 -5 -20 -10 -44 -10 -25 0 -48 5 -51 10 -4 6 13 10 44 10 28 0 51 -4 51
-10z m120 -10 c0 -5 -20 -10 -44 -10 -25 0 -48 5 -51 10 -4 6 13 10 44 10 28
0 51 -4 51 -10z m117 -15 c4 -13 -78 -7 -92 7 -6 6 8 8 39 6 27 -2 51 -8 53
-13z m120 -10 c2 -6 -17 -9 -47 -7 -27 2 -50 8 -50 14 0 12 92 6 97 -7z m113
-5 c8 -5 12 -11 10 -14 -9 -8 -90 6 -90 15 0 12 61 11 80 -1z m120 -10 c8 -5
12 -11 10 -14 -9 -8 -90 6 -90 15 0 12 61 11 80 -1z m120 -9 c14 -4 20 -10 14
-13 -14 -9 -94 3 -94 13 0 10 44 10 80 0z m120 -10 c14 -4 20 -10 14 -13 -14
-9 -94 3 -94 13 0 10 44 10 80 0z m115 -10 c44 -10 14 -23 -34 -15 -23 4 -41
10 -41 15 0 10 30 10 75 0z m134 -17 c2 -2 2 -7 -2 -10 -9 -9 -87 7 -87 18 0
9 78 2 89 -8z m130 -10 c2 -2 2 -7 -2 -10 -9 -9 -97 6 -97 16 0 9 89 3 99 -6z"/>
<path d="M2069 2053 c-5 -15 -9 -38 -7 -52 3 -25 4 -25 14 -6 7 11 15 35 19
53 8 40 -11 44 -26 5z"/>
<path d="M1600 2068 c0 -2 -7 -24 -15 -50 -11 -39 -11 -48 -1 -48 12 0 36 60
36 89 0 9 -20 17 -20 9z"/>
<path d="M1736 2054 c-8 -21 -8 -24 4 -24 5 0 14 9 20 20 8 16 8 20 -4 20 -7
0 -17 -7 -20 -16z"/>
<path d="M1686 1868 c-28 -40 -21 -58 23 -58 25 0 41 5 45 15 4 11 -2 15 -20
15 -20 0 -24 4 -19 19 9 29 -11 35 -29 9z"/>
<path d="M1344 1825 c-33 -50 -67 -209 -48 -227 13 -14 43 7 58 40 22 51 48
158 44 185 -4 32 -34 33 -54 2z"/>
<path d="M1980 1758 c-10 -24 -17 -44 -15 -46 10 -11 47 13 60 38 20 39 19 50
-5 50 -15 0 -27 -12 -40 -42z"/>
<path d="M2820 1484 c-72 -31 -125 -85 -156 -160 -15 -37 -15 -38 3 -24 10 8
20 17 23 21 3 3 39 32 80 64 41 33 84 68 95 78 11 11 29 23 40 27 16 7 13 9
-15 9 -19 0 -51 -7 -70 -15z"/>
</g>
</svg>
